# xmcd
# Track frame offsets:
# 150
# 10936
# 25789
# 40241
# 56385
# 67490
# 83315
# 98104
# 120461
# 133608
# 144222
# 156556
# 169078
# 182268
# 196602
#
# Disc length: 2826 seconds
# Revision: 0
# Processed by: cddbd v1.5.1PL0 Copyright (c) Steve Scherf et al.
# Submitted via: VisiTrax 2.9.10.228 - For more info visit www.synapsa.com
#
DISCID=b80b080f
DTITLE=Various Artist - Classic Country Hits - CD 1
DYEAR=1985
DGENRE=Country
TTITLE0=Everly Brothers, The - Bye Bye Love
TTITLE1=Earl Thomas Conley - Silent Treatment
TTITLE2=Eddie Rabbitt - I Can't Help Myself
TTITLE3=George Straight - Baby Blue
TTITLE4=Conway Twitty - Hello Darlin
TTITLE5=Highway 101 - The Bed You Made For Me
TTITLE6=Merle Haggard - Its All In The Movies
TTITLE7=Ed Bruce - The Last Cowboy Song
TTITLE8=Marty Robbins - Devil Woman
TTITLE9=Johnny Cash - There You Go
TTITLE10=Loretta Lynn - One's On The Way
TTITLE11=Johnny Paycheck - Don't Take Her
TTITLE12=Keith Whitley - Hard Livin'
TTITLE13=Mel McDaniel - I Call It Love
TTITLE14=Nitty Gritty Dirt Band - Your Going Fishing
EXTD=
EXTT0=
EXTT1=
EXTT2=
EXTT3=
EXTT4=
EXTT5=
EXTT6=
EXTT7=
EXTT8=
EXTT9=
EXTT10=
EXTT11=
EXTT12=
EXTT13=
EXTT14=
PLAYORDER=
